# xmcd CD database file
#
# Track frame offsets:
#	150
#	37967
#	96068
#	156695
#	196187
#	244597
#
# Disc length: 3685 seconds
#
# Revision: 0
# Processed by: cddbd v1.5.2PL0 Copyright (c) Steve Scherf et al.
# Submitted via: CDex 1.51
#
DISCID=450e6306
DTITLE=Paul Desmond - Edmonton Festival 76
DYEAR=1976
DGENRE=Jazz
TTITLE0=Just Squeeze Me
TTITLE1=Darn That Dream
TTITLE2=Wave
TTITLE3=Someday My Prince Will Come
TTITLE4=Wendy
TTITLE5=Take Five
EXTD=YEAR: 1976
EXTT0=
EXTT1=
EXTT2=
EXTT3=
EXTT4=
EXTT5=
PLAYORDER=
